<svg xmlns="http://www.w3.org/2000/svg" width="256" height="256" viewBox="0 0 256 256" role="img" aria-labelledby="title">
  <title>EPIS2 e2 icon</title>
  <rect width="256" height="256" rx="48" fill="#12343b"/>
  <path d="M54 129c0-46 27-76 72-76 38 0 64 22 64 56 0 36-26 57-69 57H91c8 18 25 28 50 28 18 0 33-4 47-13v29c-14 9-31 14-52 14-49 0-82-37-82-95Zm37 9h30c23 0 36-10 36-28 0-17-12-28-32-28-22 0-34 16-34 56Z" fill="#f5fbff"/>
  <path d="M145 207c0-18 13-29 35-42 16-10 23-16 23-28 0-11-8-18-21-18-12 0-23 5-34 14l-13-22c13-12 31-19 51-19 30 0 50 17 50 43 0 24-13 37-37 51-10 6-17 10-20 15h59v27h-93v-21Z" fill="#77d4bd"/>
</svg>
